<?xml version="1.0" encoding="UTF-8" standalone="no"?>
<svg
   xmlns:dc="http://purl.org/dc/elements/1.1/"
   xmlns:cc="http://creativecommons.org/ns#"
   xmlns:rdf="http://www.w3.org/1999/02/22-rdf-syntax-ns#"
   xmlns:svg="http://www.w3.org/2000/svg"
   xmlns="http://www.w3.org/2000/svg"
   xmlns:sodipodi="http://sodipodi.sourceforge.net/DTD/sodipodi-0.dtd"
   xmlns:inkscape="http://www.inkscape.org/namespaces/inkscape"
   width="327.902mm"
   height="137.402mm"
   viewBox="0.000 0.000 327.902 137.402"
   version="1.1"
   id="svg604"
   sodipodi:docname="switch_layer_led_stainless.svg"
   inkscape:version="1.0 (4035a4f, 2020-05-01)">
  <metadata
     id="metadata610">
    <rdf:RDF>
      <cc:Work
         rdf:about="">
        <dc:format>image/svg+xml</dc:format>
        <dc:type
           rdf:resource="http://purl.org/dc/dcmitype/StillImage" />
      </cc:Work>
    </rdf:RDF>
  </metadata>
  <defs
     id="defs608" />
  <sodipodi:namedview
     inkscape:document-rotation="0"
     pagecolor="#ffffff"
     bordercolor="#666666"
     borderopacity="1"
     objecttolerance="10"
     gridtolerance="10"
     guidetolerance="10"
     inkscape:pageopacity="0"
     inkscape:pageshadow="2"
     inkscape:window-width="1680"
     inkscape:window-height="963"
     id="namedview606"
     showgrid="false"
     inkscape:zoom="0.75404905"
     inkscape:cx="827.08422"
     inkscape:cy="134.63734"
     inkscape:window-x="0"
     inkscape:window-y="23"
     inkscape:window-maximized="0"
     inkscape:current-layer="svg604" />
  <polygon
     points="320.902,5.001 321.058,5.007 321.214,5.025 321.368,5.056 321.520,5.098 321.667,5.153 321.809,5.218 321.946,5.295 322.077,5.382 322.200,5.480 322.316,5.586 322.422,5.702 322.520,5.825 322.607,5.956 322.684,6.093 322.749,6.235 322.804,6.382 322.846,6.534 322.877,6.688 322.895,6.844 322.902,7.001 322.902,130.402 322.895,130.557 322.877,130.714 322.846,130.867 322.804,131.020 322.749,131.167 322.684,131.309 322.607,131.446 322.520,131.577 322.422,131.700 322.316,131.816 322.200,131.922 322.077,132.020 321.946,132.107 321.809,132.184 321.667,132.249 321.520,132.304 321.368,132.346 321.214,132.377 321.058,132.395 320.902,132.402 7.001,132.402 6.844,132.395 6.688,132.377 6.534,132.346 6.382,132.304 6.235,132.249 6.093,132.184 5.956,132.107 5.825,132.020 5.702,131.922 5.586,131.816 5.480,131.700 5.382,131.577 5.295,131.446 5.218,131.309 5.153,131.167 5.098,131.020 5.056,130.867 5.025,130.714 5.007,130.557 5.000,130.401 5.001,7.001 5.007,6.844 5.025,6.688 5.056,6.534 5.098,6.382 5.153,6.235 5.218,6.093 5.295,5.956 5.382,5.825 5.480,5.702 5.586,5.586 5.702,5.480 5.825,5.382 5.956,5.295 6.093,5.218 6.235,5.153 6.382,5.098 6.534,5.056 6.688,5.025 6.844,5.007 7.001,5.000"
     style="fill:none;stroke-width:0.050000mm;stroke:blue"
     id="polygon426" />
  <polygon
     points="7.930,127.960 7.595,128.131 7.330,128.396 7.159,128.730 7.100,129.102 7.159,129.472 7.330,129.807 7.595,130.072 7.930,130.242 8.300,130.301 8.671,130.242 9.006,130.072 9.271,129.807 9.442,129.472 9.500,129.102 9.442,128.730 9.271,128.396 9.006,128.131 8.671,127.960 8.300,127.902"
     style="fill:none;stroke-width:0.050000mm;stroke:blue"
     id="polygon428" />
  <polygon
     points="111.697,127.960 111.362,128.131 111.097,128.396 110.926,128.730 110.868,129.102 110.926,129.472 111.097,129.807 111.362,130.072 111.697,130.242 112.068,130.301 112.438,130.242 112.773,130.072 113.038,129.807 113.209,129.472 113.268,129.102 113.209,128.730 113.038,128.396 112.773,128.131 112.438,127.960 112.068,127.902"
     style="fill:none;stroke-width:0.050000mm;stroke:blue"
     id="polygon430" />
  <polygon
     points="215.464,127.960 215.129,128.131 214.864,128.396 214.693,128.730 214.635,129.102 214.693,129.472 214.864,129.807 215.129,130.072 215.464,130.242 215.835,130.301 216.205,130.242 216.540,130.072 216.805,129.807 216.976,129.472 217.035,129.102 216.976,128.730 216.805,128.396 216.540,128.131 216.205,127.960 215.835,127.902"
     style="fill:none;stroke-width:0.050000mm;stroke:blue"
     id="polygon432" />
  <polygon
     points="319.231,127.960 318.896,128.131 318.631,128.396 318.460,128.730 318.402,129.102 318.460,129.472 318.631,129.807 318.896,130.072 319.231,130.242 319.602,130.301 319.972,130.242 320.307,130.072 320.572,129.807 320.743,129.472 320.802,129.102 320.743,128.730 320.572,128.396 320.307,128.131 319.972,127.960 319.602,127.902"
     style="fill:none;stroke-width:0.1889125;stroke:blue;stroke-miterlimit:4;stroke-dasharray:none"
     id="polygon434" />
  <polygon
     points="140.332,109.375 140.332,114.075 100.607,114.075 100.607,110.845 98.882,110.845 98.882,109.925 95.682,109.925 95.682,110.845 93.957,110.845 93.957,114.075 93.132,114.075 93.132,116.775 93.957,116.775 93.957,123.045 95.682,123.045 95.682,124.025 98.882,124.025 98.882,123.045 100.607,123.045 100.607,118.575 140.332,118.575 140.332,123.275 154.232,123.275 154.232,118.575 193.957,118.575 193.957,123.045 195.682,123.045 195.682,124.025 198.882,124.025 198.882,123.045 200.607,123.045 200.607,116.775 201.432,116.775 201.432,114.075 200.607,114.075 200.607,110.845 198.882,110.845 198.882,109.925 195.682,109.925 195.682,110.845 193.957,110.845 193.957,114.075 154.232,114.075 154.232,109.375"
     style="fill:none;stroke-width:0.050000mm;stroke:blue"
     id="polygon436" />
  <polygon
     points="295.113,109.375 295.113,123.275 309.013,123.275 309.013,109.375"
     style="fill:none;stroke-width:0.050000mm;stroke:blue"
     id="polygon438" />
  <polygon
     points="276.063,109.375 276.063,123.275 289.963,123.275 289.963,109.375"
     style="fill:none;stroke-width:0.050000mm;stroke:blue"
     id="polygon440" />
  <polygon
     points="257.013,109.375 257.013,123.275 270.913,123.275 270.913,109.375"
     style="fill:none;stroke-width:0.050000mm;stroke:blue"
     id="polygon442" />
  <polygon
     points="235.582,109.375 235.582,123.275 249.482,123.275 249.482,109.375"
     style="fill:none;stroke-width:0.050000mm;stroke:blue"
     id="polygon444" />
  <polygon
     points="211.769,109.375 211.769,123.275 225.669,123.275 225.669,109.375"
     style="fill:none;stroke-width:0.050000mm;stroke:blue"
     id="polygon446" />
  <polygon
     points="68.894,109.375 68.894,123.275 82.794,123.275 82.794,109.375"
     style="fill:none;stroke-width:0.050000mm;stroke:blue"
     id="polygon448" />
  <polygon
     points="45.082,109.375 45.082,123.275 58.982,123.275 58.982,109.375"
     style="fill:none;stroke-width:0.050000mm;stroke:blue"
     id="polygon450" />
  <polygon
     points="18.888,109.375 18.888,123.275 32.788,123.275 32.788,109.375"
     style="fill:none;stroke-width:0.050000mm;stroke:blue"
     id="polygon452" />
  <polygon
     points="26.032,90.325 26.032,95.025 24.407,95.025 24.407,91.795 22.682,91.795 22.682,90.875 19.482,90.875 19.482,91.795 17.757,91.795 17.757,95.025 16.932,95.025 16.932,97.726 17.757,97.726 17.757,103.995 19.482,103.995 19.482,104.976 22.682,104.976 22.682,103.995 24.407,103.995 24.407,99.525 26.032,99.525 26.032,104.226 39.932,104.226 39.932,99.525 41.557,99.525 41.557,103.995 43.282,103.995 43.282,104.976 46.482,104.976 46.482,103.995 48.207,103.995 48.207,97.726 49.032,97.726 49.032,95.025 48.207,95.025 48.207,91.795 46.482,91.795 46.482,90.875 43.282,90.875 43.282,91.795 41.557,91.795 41.557,95.025 39.932,95.025 39.932,90.325"
     style="fill:none;stroke-width:0.050000mm;stroke:blue"
     id="polygon454" />
  <polygon
     points="276.063,90.325 276.063,104.226 289.963,104.226 289.963,90.325"
     style="fill:none;stroke-width:0.050000mm;stroke:blue"
     id="polygon456" />
  <polygon
     points="252.251,90.325 252.251,104.226 266.151,104.226 266.151,90.325"
     style="fill:none;stroke-width:0.050000mm;stroke:blue"
     id="polygon458" />
  <polygon
     points="228.438,90.325 228.438,104.226 242.338,104.226 242.338,90.325"
     style="fill:none;stroke-width:0.050000mm;stroke:blue"
     id="polygon460" />
  <polygon
     points="209.388,90.325 209.388,104.226 223.288,104.226 223.288,90.325"
     style="fill:none;stroke-width:0.050000mm;stroke:blue"
     id="polygon462" />
  <polygon
     points="190.338,90.325 190.338,104.226 204.238,104.226 204.238,90.325"
     style="fill:none;stroke-width:0.050000mm;stroke:blue"
     id="polygon464" />
  <polygon
     points="171.288,90.325 171.288,104.226 185.188,104.226 185.188,90.325"
     style="fill:none;stroke-width:0.050000mm;stroke:blue"
     id="polygon466" />
  <polygon
     points="152.238,90.325 152.238,104.226 166.138,104.226 166.138,90.325"
     style="fill:none;stroke-width:0.050000mm;stroke:blue"
     id="polygon468" />
  <polygon
     points="133.188,90.325 133.188,104.226 147.088,104.226 147.088,90.325"
     style="fill:none;stroke-width:0.050000mm;stroke:blue"
     id="polygon470" />
  <polygon
     points="114.138,90.325 114.138,104.226 128.038,104.226 128.038,90.325"
     style="fill:none;stroke-width:0.050000mm;stroke:blue"
     id="polygon472" />
  <polygon
     points="95.088,90.325 95.088,104.226 108.988,104.226 108.988,90.325"
     style="fill:none;stroke-width:0.050000mm;stroke:blue"
     id="polygon474" />
  <polygon
     points="76.038,90.325 76.038,104.226 89.938,104.226 89.938,90.325"
     style="fill:none;stroke-width:0.050000mm;stroke:blue"
     id="polygon476" />
  <polygon
     points="56.988,90.325 56.988,104.226 70.888,104.226 70.888,90.325"
     style="fill:none;stroke-width:0.050000mm;stroke:blue"
     id="polygon478" />
  <polygon
     points="266.538,71.275 266.538,75.976 264.913,75.976 264.913,72.745 263.188,72.745 263.188,71.825 259.988,71.825 259.988,72.745 258.263,72.745 258.263,75.976 257.438,75.976 257.438,78.676 258.263,78.676 258.263,84.946 259.988,84.946 259.988,85.926 263.188,85.926 263.188,84.946 264.913,84.946 264.913,80.476 266.538,80.476 266.538,85.176 280.438,85.176 280.438,80.476 282.063,80.476 282.063,84.946 283.788,84.946 283.788,85.926 286.988,85.926 286.988,84.946 288.713,84.946 288.713,78.676 289.538,78.676 289.538,75.976 288.713,75.976 288.713,72.745 286.988,72.745 286.988,71.825 283.788,71.825 283.788,72.745 282.063,72.745 282.063,75.976 280.438,75.976 280.438,71.275"
     style="fill:none;stroke-width:0.050000mm;stroke:blue"
     id="polygon480" />
  <polygon
     points="237.963,71.275 237.963,85.176 251.863,85.176 251.863,71.275"
     style="fill:none;stroke-width:0.050000mm;stroke:blue"
     id="polygon482" />
  <polygon
     points="218.913,71.275 218.913,85.176 232.813,85.176 232.813,71.275"
     style="fill:none;stroke-width:0.050000mm;stroke:blue"
     id="polygon484" />
  <polygon
     points="199.863,71.275 199.863,85.176 213.763,85.176 213.763,71.275"
     style="fill:none;stroke-width:0.050000mm;stroke:blue"
     id="polygon486" />
  <polygon
     points="180.813,71.275 180.813,85.176 194.713,85.176 194.713,71.275"
     style="fill:none;stroke-width:0.050000mm;stroke:blue"
     id="polygon488" />
  <polygon
     points="161.763,71.275 161.763,85.176 175.663,85.176 175.663,71.275"
     style="fill:none;stroke-width:0.050000mm;stroke:blue"
     id="polygon490" />
  <polygon
     points="142.713,71.275 142.713,85.176 156.613,85.176 156.613,71.275"
     style="fill:none;stroke-width:0.050000mm;stroke:blue"
     id="polygon492" />
  <polygon
     points="123.663,71.275 123.663,85.176 137.563,85.176 137.563,71.275"
     style="fill:none;stroke-width:0.050000mm;stroke:blue"
     id="polygon494" />
  <polygon
     points="104.613,71.275 104.613,85.176 118.513,85.176 118.513,71.275"
     style="fill:none;stroke-width:0.050000mm;stroke:blue"
     id="polygon496" />
  <polygon
     points="85.563,71.275 85.563,85.176 99.463,85.176 99.463,71.275"
     style="fill:none;stroke-width:0.050000mm;stroke:blue"
     id="polygon498" />
  <polygon
     points="66.513,71.275 66.513,85.176 80.413,85.176 80.413,71.275"
     style="fill:none;stroke-width:0.050000mm;stroke:blue"
     id="polygon500" />
  <polygon
     points="47.463,71.275 47.463,85.176 61.363,85.176 61.363,71.275"
     style="fill:none;stroke-width:0.050000mm;stroke:blue"
     id="polygon502" />
  <polygon
     points="21.269,71.275 21.269,85.176 35.169,85.176 35.169,71.275"
     style="fill:none;stroke-width:0.050000mm;stroke:blue"
     id="polygon504" />
  <polygon
     points="299.876,52.225 299.876,66.126 313.776,66.126 313.776,52.225"
     style="fill:none;stroke-width:0.189;stroke:blue;stroke-miterlimit:4;stroke-dasharray:none"
     id="polygon506" />
  <polygon
     points="273.682,52.225 273.682,66.126 287.582,66.126 287.582,52.225"
     style="fill:none;stroke-width:0.050000mm;stroke:blue"
     id="polygon508" />
  <polygon
     points="252.251,52.225 252.251,66.126 266.151,66.126 266.151,52.225"
     style="fill:none;stroke-width:0.050000mm;stroke:blue"
     id="polygon510" />
  <polygon
     points="233.201,52.225 233.201,66.126 247.101,66.126 247.101,52.225"
     style="fill:none;stroke-width:0.050000mm;stroke:blue"
     id="polygon512" />
  <polygon
     points="214.151,52.225 214.151,66.126 228.051,66.126 228.051,52.225"
     style="fill:none;stroke-width:0.050000mm;stroke:blue"
     id="polygon514" />
  <polygon
     points="195.101,52.225 195.101,66.126 209.001,66.126 209.001,52.225"
     style="fill:none;stroke-width:0.050000mm;stroke:blue"
     id="polygon516" />
  <polygon
     points="176.051,52.225 176.051,66.126 189.951,66.126 189.951,52.225"
     style="fill:none;stroke-width:0.050000mm;stroke:blue"
     id="polygon518" />
  <polygon
     points="157.001,52.225 157.001,66.126 170.901,66.126 170.901,52.225"
     style="fill:none;stroke-width:0.050000mm;stroke:blue"
     id="polygon520" />
  <polygon
     points="137.951,52.225 137.951,66.126 151.851,66.126 151.851,52.225"
     style="fill:none;stroke-width:0.050000mm;stroke:blue"
     id="polygon522" />
  <polygon
     points="118.900,52.225 118.900,66.126 132.800,66.126 132.800,52.225"
     style="fill:none;stroke-width:0.050000mm;stroke:blue"
     id="polygon524" />
  <polygon
     points="99.851,52.225 99.851,66.126 113.751,66.126 113.751,52.225"
     style="fill:none;stroke-width:0.050000mm;stroke:blue"
     id="polygon526" />
  <polygon
     points="80.801,52.225 80.801,66.126 94.701,66.126 94.701,52.225"
     style="fill:none;stroke-width:0.050000mm;stroke:blue"
     id="polygon528" />
  <polygon
     points="61.751,52.225 61.751,66.126 75.651,66.126 75.651,52.225"
     style="fill:none;stroke-width:0.050000mm;stroke:blue"
     id="polygon530" />
  <polygon
     points="42.701,52.225 42.701,66.126 56.601,66.126 56.601,52.225"
     style="fill:none;stroke-width:0.050000mm;stroke:blue"
     id="polygon532" />
  <polygon
     points="18.888,52.225 18.888,66.126 32.788,66.126 32.788,52.225"
     style="fill:none;stroke-width:0.050000mm;stroke:blue"
     id="polygon534" />
  <polygon
     points="299.876,33.176 299.876,47.076 313.776,47.076 313.776,33.176"
     style="fill:none;stroke-width:0.050000mm;stroke:blue"
     id="polygon536" />
  <polygon
     points="268.919,33.176 268.919,47.076 282.819,47.076 282.819,33.176"
     style="fill:none;stroke-width:0.050000mm;stroke:blue"
     id="polygon538" />
  <polygon
     points="242.726,33.176 242.726,47.076 256.626,47.076 256.626,33.176"
     style="fill:none;stroke-width:0.050000mm;stroke:blue"
     id="polygon540" />
  <polygon
     points="223.676,33.176 223.676,47.076 237.576,47.076 237.576,33.176"
     style="fill:none;stroke-width:0.050000mm;stroke:blue"
     id="polygon542" />
  <polygon
     points="204.626,33.176 204.626,47.076 218.526,47.076 218.526,33.176"
     style="fill:none;stroke-width:0.050000mm;stroke:blue"
     id="polygon544" />
  <polygon
     points="185.576,33.176 185.576,47.076 199.476,47.076 199.476,33.176"
     style="fill:none;stroke-width:0.050000mm;stroke:blue"
     id="polygon546" />
  <polygon
     points="166.526,33.176 166.526,47.076 180.426,47.076 180.426,33.176"
     style="fill:none;stroke-width:0.050000mm;stroke:blue"
     id="polygon548" />
  <polygon
     points="147.476,33.176 147.476,47.076 161.376,47.076 161.376,33.176"
     style="fill:none;stroke-width:0.050000mm;stroke:blue"
     id="polygon550" />
  <polygon
     points="128.426,33.176 128.426,47.076 142.326,47.076 142.326,33.176"
     style="fill:none;stroke-width:0.050000mm;stroke:blue"
     id="polygon552" />
  <polygon
     points="109.375,33.176 109.375,47.076 123.275,47.076 123.275,33.176"
     style="fill:none;stroke-width:0.050000mm;stroke:blue"
     id="polygon554" />
  <polygon
     points="90.325,33.176 90.325,47.076 104.226,47.076 104.226,33.176"
     style="fill:none;stroke-width:0.050000mm;stroke:blue"
     id="polygon556" />
  <polygon
     points="71.275,33.176 71.275,47.076 85.176,47.076 85.176,33.176"
     style="fill:none;stroke-width:0.050000mm;stroke:blue"
     id="polygon558" />
  <polygon
     points="52.225,33.176 52.225,47.076 66.126,47.076 66.126,33.176"
     style="fill:none;stroke-width:0.050000mm;stroke:blue"
     id="polygon560" />
  <polygon
     points="33.176,33.176 33.176,47.076 47.076,47.076 47.076,33.176"
     style="fill:none;stroke-width:0.050000mm;stroke:blue"
     id="polygon562" />
  <polygon
     points="14.126,33.176 14.126,47.076 28.026,47.076 28.026,33.176"
     style="fill:none;stroke-width:0.050000mm;stroke:blue"
     id="polygon564" />
  <polygon
     points="299.876,14.126 299.876,28.026 313.776,28.026 313.776,14.126"
     style="fill:none;stroke-width:0.050000mm;stroke:blue"
     id="polygon566" />
  <polygon
     points="276.063,14.126 276.063,28.026 289.963,28.026 289.963,14.126"
     style="fill:none;stroke-width:0.050000mm;stroke:blue"
     id="polygon568" />
  <polygon
     points="242.726,14.126 242.726,28.026 256.626,28.026 256.626,14.126"
     style="fill:none;stroke-width:0.050000mm;stroke:blue"
     id="polygon570" />
  <polygon
     points="223.676,14.126 223.676,28.026 237.576,28.026 237.576,14.126"
     style="fill:none;stroke-width:0.050000mm;stroke:blue"
     id="polygon572" />
  <polygon
     points="204.626,14.126 204.626,28.026 218.526,28.026 218.526,14.126"
     style="fill:none;stroke-width:0.050000mm;stroke:blue"
     id="polygon574" />
  <polygon
     points="185.576,14.126 185.576,28.026 199.476,28.026 199.476,14.126"
     style="fill:none;stroke-width:0.050000mm;stroke:blue"
     id="polygon576" />
  <polygon
     points="166.526,14.126 166.526,28.026 180.426,28.026 180.426,14.126"
     style="fill:none;stroke-width:0.050000mm;stroke:blue"
     id="polygon578" />
  <polygon
     points="147.476,14.126 147.476,28.026 161.376,28.026 161.376,14.126"
     style="fill:none;stroke-width:0.050000mm;stroke:blue"
     id="polygon580" />
  <polygon
     points="128.426,14.126 128.426,28.026 142.326,28.026 142.326,14.126"
     style="fill:none;stroke-width:0.050000mm;stroke:blue"
     id="polygon582" />
  <polygon
     points="109.375,14.126 109.375,28.026 123.275,28.026 123.275,14.126"
     style="fill:none;stroke-width:0.050000mm;stroke:blue"
     id="polygon584" />
  <polygon
     points="90.325,14.126 90.325,28.026 104.226,28.026 104.226,14.126"
     style="fill:none;stroke-width:0.050000mm;stroke:blue"
     id="polygon586" />
  <polygon
     points="71.275,14.126 71.275,28.026 85.176,28.026 85.176,14.126"
     style="fill:none;stroke-width:0.050000mm;stroke:blue"
     id="polygon588" />
  <polygon
     points="52.225,14.126 52.225,28.026 66.126,28.026 66.126,14.126"
     style="fill:none;stroke-width:0.050000mm;stroke:blue"
     id="polygon590" />
  <polygon
     points="33.176,14.126 33.176,28.026 47.076,28.026 47.076,14.126"
     style="fill:none;stroke-width:0.050000mm;stroke:blue"
     id="polygon592" />
  <polygon
     points="14.126,14.126 14.126,28.026 28.026,28.026 28.026,14.126"
     style="fill:none;stroke-width:0.050000mm;stroke:blue"
     id="polygon594" />
  <polygon
     points="7.930,7.159 7.595,7.330 7.330,7.595 7.159,7.930 7.100,8.301 7.159,8.671 7.330,9.006 7.595,9.271 7.930,9.442 8.300,9.501 8.671,9.442 9.006,9.271 9.271,9.006 9.442,8.671 9.500,8.301 9.442,7.930 9.271,7.595 9.006,7.330 8.671,7.159 8.300,7.101"
     style="fill:none;stroke-width:0.050000mm;stroke:blue"
     id="polygon596" />
  <polygon
     points="319.231,7.159 318.896,7.330 318.631,7.595 318.460,7.930 318.402,8.301 318.460,8.671 318.631,9.006 318.896,9.271 319.231,9.442 319.602,9.501 319.972,9.442 320.307,9.271 320.572,9.006 320.743,8.671 320.802,8.301 320.743,7.930 320.572,7.595 320.307,7.330 319.972,7.159 319.602,7.101"
     style="fill:none;stroke-width:0.050000mm;stroke:blue"
     id="polygon598" />
  <polygon
     points="215.464,7.159 215.129,7.330 214.864,7.595 214.693,7.930 214.635,8.301 214.693,8.671 214.864,9.006 215.129,9.271 215.464,9.442 215.835,9.501 216.205,9.442 216.540,9.271 216.805,9.006 216.976,8.671 217.035,8.301 216.976,7.930 216.805,7.595 216.540,7.330 216.205,7.159 215.835,7.101"
     style="fill:none;stroke-width:0.050000mm;stroke:blue"
     id="polygon600" />
  <polygon
     points="111.697,7.159 111.362,7.330 111.097,7.595 110.926,7.930 110.868,8.301 110.926,8.671 111.097,9.006 111.362,9.271 111.697,9.442 112.068,9.501 112.438,9.442 112.773,9.271 113.038,9.006 113.209,8.671 113.268,8.301 113.209,7.930 113.038,7.595 112.773,7.330 112.438,7.159 112.068,7.101"
     style="fill:none;stroke-width:0.050000mm;stroke:blue"
     id="polygon602" />
  <circle
     style="fill:none;fill-rule:evenodd;stroke:#0000ff;stroke-width:0.189;stroke-miterlimit:4;stroke-dasharray:none;stroke-opacity:0.784314"
     id="path614"
     cx="306.82599"
     cy="78.225502"
     r="1.4365153" />
</svg>
