  0
SECTION
  2
HEADER
  9
$ACADVER
  1
AC1009
  9
$EXTMIN
 10
0.0
 20
0.0
 30
0.0
  9
$EXTMAX
 10
1000.0
 20
1000.0
 30
0.0
  9
$FILLMODE
 70
 0
  9
$SPLFRAME
 70
 1
  0
ENDSEC
  0
SECTION
  2
TABLES
  0
TABLE
  2
LAYER
 70
1
  0
LAYER
  2
0
 70
     0
 62
     7
  6
CONTINUOUS
  0
ENDTAB
  0
ENDSEC
  0
SECTION
  2
ENTITIES
  0
LINE
  8
0
 62
     5
 10
154.095
 20
121.01
 30
0.0
 11
6.69452
 21
121.01
 31
0.0
  0
LINE
  8
0
 62
     5
 10
6.69452
 20
121.01
 30
0.0
 11
6.69452
 21
6.80889
 31
0.0
  0
LINE
  8
0
 62
     5
 10
6.69452
 20
6.80889
 30
0.0
 11
311.397
 21
6.80889
 31
0.0
  0
LINE
  8
0
 62
     5
 10
311.397
 20
6.80889
 30
0.0
 11
311.397
 21
121.01
 31
0.0
  0
LINE
  8
0
 62
     5
 10
311.397
 20
121.01
 30
0.0
 11
163.995
 21
121.01
 31
0.0
  0
LINE
  8
0
 62
     5
 10
163.995
 20
121.01
 30
0.0
 11
163.995
 21
127.61
 31
0.0
  0
LINE
  8
0
 62
     5
 10
163.995
 20
127.61
 30
0.0
 11
315.996
 21
127.61
 31
0.0
  0
LINE
  8
0
 62
     5
 10
315.996
 20
127.61
 30
0.0
 11
316.152
 21
127.604
 31
0.0
  0
LINE
  8
0
 62
     5
 10
316.152
 20
127.604
 30
0.0
 11
316.308
 21
127.586
 31
0.0
  0
LINE
  8
0
 62
     5
 10
316.308
 20
127.586
 30
0.0
 11
316.462
 21
127.555
 31
0.0
  0
LINE
  8
0
 62
     5
 10
316.462
 20
127.555
 30
0.0
 11
316.614
 21
127.513
 31
0.0
  0
LINE
  8
0
 62
     5
 10
316.614
 20
127.513
 30
0.0
 11
316.761
 21
127.458
 31
0.0
  0
LINE
  8
0
 62
     5
 10
316.761
 20
127.458
 30
0.0
 11
316.903
 21
127.393
 31
0.0
  0
LINE
  8
0
 62
     5
 10
316.903
 20
127.393
 30
0.0
 11
317.041
 21
127.316
 31
0.0
  0
LINE
  8
0
 62
     5
 10
317.041
 20
127.316
 30
0.0
 11
317.172
 21
127.229
 31
0.0
  0
LINE
  8
0
 62
     5
 10
317.172
 20
127.229
 30
0.0
 11
317.295
 21
127.131
 31
0.0
  0
LINE
  8
0
 62
     5
 10
317.295
 20
127.131
 30
0.0
 11
317.41
 21
127.025
 31
0.0
  0
LINE
  8
0
 62
     5
 10
317.41
 20
127.025
 30
0.0
 11
317.517
 21
126.909
 31
0.0
  0
LINE
  8
0
 62
     5
 10
317.517
 20
126.909
 30
0.0
 11
317.614
 21
126.787
 31
0.0
  0
LINE
  8
0
 62
     5
 10
317.614
 20
126.787
 30
0.0
 11
317.701
 21
126.655
 31
0.0
  0
LINE
  8
0
 62
     5
 10
317.701
 20
126.655
 30
0.0
 11
317.778
 21
126.518
 31
0.0
  0
LINE
  8
0
 62
     5
 10
317.778
 20
126.518
 30
0.0
 11
317.843
 21
126.376
 31
0.0
  0
LINE
  8
0
 62
     5
 10
317.843
 20
126.376
 30
0.0
 11
317.898
 21
126.23
 31
0.0
  0
LINE
  8
0
 62
     5
 10
317.898
 20
126.23
 30
0.0
 11
317.941
 21
126.077
 31
0.0
  0
LINE
  8
0
 62
     5
 10
317.941
 20
126.077
 30
0.0
 11
317.971
 21
125.924
 31
0.0
  0
LINE
  8
0
 62
     5
 10
317.971
 20
125.924
 30
0.0
 11
317.989
 21
125.767
 31
0.0
  0
LINE
  8
0
 62
     5
 10
317.989
 20
125.767
 30
0.0
 11
317.996
 21
125.61
 31
0.0
  0
LINE
  8
0
 62
     5
 10
317.996
 20
125.61
 30
0.0
 11
317.996
 21
2.209
 31
0.0
  0
LINE
  8
0
 62
     5
 10
317.996
 20
2.209
 30
0.0
 11
317.989
 21
2.05466
 31
0.0
  0
LINE
  8
0
 62
     5
 10
317.989
 20
2.05466
 30
0.0
 11
317.971
 21
1.89756
 31
0.0
  0
LINE
  8
0
 62
     5
 10
317.971
 20
1.89756
 30
0.0
 11
317.941
 21
1.7446
 31
0.0
  0
LINE
  8
0
 62
     5
 10
317.941
 20
1.7446
 30
0.0
 11
317.898
 21
1.59163
 31
0.0
  0
LINE
  8
0
 62
     5
 10
317.898
 20
1.59163
 30
0.0
 11
317.843
 21
1.44418
 31
0.0
  0
LINE
  8
0
 62
     5
 10
317.843
 20
1.44418
 30
0.0
 11
317.778
 21
1.30225
 31
0.0
  0
LINE
  8
0
 62
     5
 10
317.778
 20
1.30225
 30
0.0
 11
317.701
 21
1.16444
 31
0.0
  0
LINE
  8
0
 62
     5
 10
317.701
 20
1.16444
 30
0.0
 11
317.614
 21
1.03353
 31
0.0
  0
LINE
  8
0
 62
     5
 10
317.614
 20
1.03353
 30
0.0
 11
317.517
 21
0.910883
 31
0.0
  0
LINE
  8
0
 62
     5
 10
317.517
 20
0.910883
 30
0.0
 11
317.41
 21
0.795129
 31
0.0
  0
LINE
  8
0
 62
     5
 10
317.41
 20
0.795129
 30
0.0
 11
317.295
 21
0.689021
 31
0.0
  0
LINE
  8
0
 62
     5
 10
317.295
 20
0.689021
 30
0.0
 11
317.172
 21
0.591178
 31
0.0
  0
LINE
  8
0
 62
     5
 10
317.172
 20
0.591178
 30
0.0
 11
317.041
 21
0.504363
 31
0.0
  0
LINE
  8
0
 62
     5
 10
317.041
 20
0.504363
 30
0.0
 11
316.903
 21
0.427193
 31
0.0
  0
LINE
  8
0
 62
     5
 10
316.903
 20
0.427193
 30
0.0
 11
316.761
 21
0.362423
 31
0.0
  0
LINE
  8
0
 62
     5
 10
316.761
 20
0.362423
 30
0.0
 11
316.614
 21
0.307303
 31
0.0
  0
LINE
  8
0
 62
     5
 10
316.614
 20
0.307303
 30
0.0
 11
316.462
 21
0.264583
 31
0.0
  0
LINE
  8
0
 62
     5
 10
316.462
 20
0.264583
 30
0.0
 11
316.308
 21
0.234267
 31
0.0
  0
LINE
  8
0
 62
     5
 10
316.308
 20
0.234267
 30
0.0
 11
316.152
 21
0.216352
 31
0.0
  0
LINE
  8
0
 62
     5
 10
316.152
 20
0.216352
 30
0.0
 11
315.996
 21
0.209462
 31
0.0
  0
LINE
  8
0
 62
     5
 10
315.996
 20
0.209462
 30
0.0
 11
2.096
 21
0.209462
 31
0.0
  0
LINE
  8
0
 62
     5
 10
2.096
 20
0.209462
 30
0.0
 11
1.9389
 21
0.216352
 31
0.0
  0
LINE
  8
0
 62
     5
 10
1.9389
 20
0.216352
 30
0.0
 11
1.7818
 21
0.234267
 31
0.0
  0
LINE
  8
0
 62
     5
 10
1.7818
 20
0.234267
 30
0.0
 11
1.62884
 21
0.264583
 31
0.0
  0
LINE
  8
0
 62
     5
 10
1.62884
 20
0.264583
 30
0.0
 11
1.47588
 21
0.307303
 31
0.0
  0
LINE
  8
0
 62
     5
 10
1.47588
 20
0.307303
 30
0.0
 11
1.32981
 21
0.362423
 31
0.0
  0
LINE
  8
0
 62
     5
 10
1.32981
 20
0.362423
 30
0.0
 11
1.18787
 21
0.427193
 31
0.0
  0
LINE
  8
0
 62
     5
 10
1.18787
 20
0.427193
 30
0.0
 11
1.05006
 21
0.504363
 31
0.0
  0
LINE
  8
0
 62
     5
 10
1.05006
 20
0.504363
 30
0.0
 11
0.919152
 21
0.591178
 31
0.0
  0
LINE
  8
0
 62
     5
 10
0.919152
 20
0.591178
 30
0.0
 11
0.796505
 21
0.689021
 31
0.0
  0
LINE
  8
0
 62
     5
 10
0.796505
 20
0.689021
 30
0.0
 11
0.680752
 21
0.795129
 31
0.0
  0
LINE
  8
0
 62
     5
 10
0.680752
 20
0.795129
 30
0.0
 11
0.574643
 21
0.910883
 31
0.0
  0
LINE
  8
0
 62
     5
 10
0.574643
 20
0.910883
 30
0.0
 11
0.4768
 21
1.03353
 31
0.0
  0
LINE
  8
0
 62
     5
 10
0.4768
 20
1.03353
 30
0.0
 11
0.389985
 21
1.16444
 31
0.0
  0
LINE
  8
0
 62
     5
 10
0.389985
 20
1.16444
 30
0.0
 11
0.312815
 21
1.30225
 31
0.0
  0
LINE
  8
0
 62
     5
 10
0.312815
 20
1.30225
 30
0.0
 11
0.248047
 21
1.44418
 31
0.0
  0
LINE
  8
0
 62
     5
 10
0.248047
 20
1.44418
 30
0.0
 11
0.192925
 21
1.59163
 31
0.0
  0
LINE
  8
0
 62
     5
 10
0.192925
 20
1.59163
 30
0.0
 11
0.150206
 21
1.7446
 31
0.0
  0
LINE
  8
0
 62
     5
 10
0.150206
 20
1.7446
 30
0.0
 11
0.119889
 21
1.89756
 31
0.0
  0
LINE
  8
0
 62
     5
 10
0.119889
 20
1.89756
 30
0.0
 11
0.101975
 21
2.05466
 31
0.0
  0
LINE
  8
0
 62
     5
 10
0.101975
 20
2.05466
 30
0.0
 11
0.0950846
 21
2.21037
 31
0.0
  0
LINE
  8
0
 62
     5
 10
0.0950846
 20
2.21037
 30
0.0
 11
0.0950846
 21
125.61
 31
0.0
  0
LINE
  8
0
 62
     5
 10
0.0950846
 20
125.61
 30
0.0
 11
0.101975
 21
125.767
 31
0.0
  0
LINE
  8
0
 62
     5
 10
0.101975
 20
125.767
 30
0.0
 11
0.119889
 21
125.924
 31
0.0
  0
LINE
  8
0
 62
     5
 10
0.119889
 20
125.924
 30
0.0
 11
0.150206
 21
126.077
 31
0.0
  0
LINE
  8
0
 62
     5
 10
0.150206
 20
126.077
 30
0.0
 11
0.192925
 21
126.23
 31
0.0
  0
LINE
  8
0
 62
     5
 10
0.192925
 20
126.23
 30
0.0
 11
0.248047
 21
126.376
 31
0.0
  0
LINE
  8
0
 62
     5
 10
0.248047
 20
126.376
 30
0.0
 11
0.312815
 21
126.518
 31
0.0
  0
LINE
  8
0
 62
     5
 10
0.312815
 20
126.518
 30
0.0
 11
0.389985
 21
126.655
 31
0.0
  0
LINE
  8
0
 62
     5
 10
0.389985
 20
126.655
 30
0.0
 11
0.4768
 21
126.787
 31
0.0
  0
LINE
  8
0
 62
     5
 10
0.4768
 20
126.787
 30
0.0
 11
0.574643
 21
126.909
 31
0.0
  0
LINE
  8
0
 62
     5
 10
0.574643
 20
126.909
 30
0.0
 11
0.680752
 21
127.025
 31
0.0
  0
LINE
  8
0
 62
     5
 10
0.680752
 20
127.025
 30
0.0
 11
0.796505
 21
127.131
 31
0.0
  0
LINE
  8
0
 62
     5
 10
0.796505
 20
127.131
 30
0.0
 11
0.919152
 21
127.229
 31
0.0
  0
LINE
  8
0
 62
     5
 10
0.919152
 20
127.229
 30
0.0
 11
1.05006
 21
127.316
 31
0.0
  0
LINE
  8
0
 62
     5
 10
1.05006
 20
127.316
 30
0.0
 11
1.18787
 21
127.393
 31
0.0
  0
LINE
  8
0
 62
     5
 10
1.18787
 20
127.393
 30
0.0
 11
1.32981
 21
127.458
 31
0.0
  0
LINE
  8
0
 62
     5
 10
1.32981
 20
127.458
 30
0.0
 11
1.47588
 21
127.513
 31
0.0
  0
LINE
  8
0
 62
     5
 10
1.47588
 20
127.513
 30
0.0
 11
1.62884
 21
127.555
 31
0.0
  0
LINE
  8
0
 62
     5
 10
1.62884
 20
127.555
 30
0.0
 11
1.7818
 21
127.586
 31
0.0
  0
LINE
  8
0
 62
     5
 10
1.7818
 20
127.586
 30
0.0
 11
1.9389
 21
127.604
 31
0.0
  0
LINE
  8
0
 62
     5
 10
1.9389
 20
127.604
 30
0.0
 11
2.096
 21
127.61
 31
0.0
  0
LINE
  8
0
 62
     5
 10
2.096
 20
127.61
 30
0.0
 11
154.095
 21
127.61
 31
0.0
  0
LINE
  8
0
 62
     5
 10
154.095
 20
127.61
 30
0.0
 11
154.095
 21
121.01
 31
0.0
  0
LINE
  8
0
 62
     5
 10
3.02479
 20
4.65088
 30
0.0
 11
2.68993
 21
4.48
 31
0.0
  0
LINE
  8
0
 62
     5
 10
2.68993
 20
4.48
 30
0.0
 11
2.42397
 21
4.21541
 31
0.0
  0
LINE
  8
0
 62
     5
 10
2.42397
 20
4.21541
 30
0.0
 11
2.25309
 21
3.88056
 31
0.0
  0
LINE
  8
0
 62
     5
 10
2.25309
 20
3.88056
 30
0.0
 11
2.19384
 21
3.50848
 31
0.0
  0
LINE
  8
0
 62
     5
 10
2.19384
 20
3.50848
 30
0.0
 11
2.25309
 21
3.13917
 31
0.0
  0
LINE
  8
0
 62
     5
 10
2.25309
 20
3.13917
 30
0.0
 11
2.42397
 21
2.80431
 31
0.0
  0
LINE
  8
0
 62
     5
 10
2.42397
 20
2.80431
 30
0.0
 11
2.68993
 21
2.53972
 31
0.0
  0
LINE
  8
0
 62
     5
 10
2.68993
 20
2.53972
 30
0.0
 11
3.02479
 21
2.36885
 31
0.0
  0
LINE
  8
0
 62
     5
 10
3.02479
 20
2.36885
 30
0.0
 11
3.39411
 21
2.30959
 31
0.0
  0
LINE
  8
0
 62
     5
 10
3.39411
 20
2.30959
 30
0.0
 11
3.76481
 21
2.36885
 31
0.0
  0
LINE
  8
0
 62
     5
 10
3.76481
 20
2.36885
 30
0.0
 11
4.10104
 21
2.53972
 31
0.0
  0
LINE
  8
0
 62
     5
 10
4.10104
 20
2.53972
 30
0.0
 11
4.36563
 21
2.80431
 31
0.0
  0
LINE
  8
0
 62
     5
 10
4.36563
 20
2.80431
 30
0.0
 11
4.53651
 21
3.13917
 31
0.0
  0
LINE
  8
0
 62
     5
 10
4.53651
 20
3.13917
 30
0.0
 11
4.59437
 21
3.50848
 31
0.0
  0
LINE
  8
0
 62
     5
 10
4.59437
 20
3.50848
 30
0.0
 11
4.53651
 21
3.88056
 31
0.0
  0
LINE
  8
0
 62
     5
 10
4.53651
 20
3.88056
 30
0.0
 11
4.36563
 21
4.21541
 31
0.0
  0
LINE
  8
0
 62
     5
 10
4.36563
 20
4.21541
 30
0.0
 11
4.10104
 21
4.48
 31
0.0
  0
LINE
  8
0
 62
     5
 10
4.10104
 20
4.48
 30
0.0
 11
3.76481
 21
4.65088
 31
0.0
  0
LINE
  8
0
 62
     5
 10
3.76481
 20
4.65088
 30
0.0
 11
3.39411
 21
4.70877
 31
0.0
  0
LINE
  8
0
 62
     5
 10
3.39411
 20
4.70877
 30
0.0
 11
3.02479
 21
4.65088
 31
0.0
  0
LINE
  8
0
 62
     5
 10
106.791
 20
4.65088
 30
0.0
 11
106.456
 21
4.48
 31
0.0
  0
LINE
  8
0
 62
     5
 10
106.456
 20
4.48
 30
0.0
 11
106.192
 21
4.21541
 31
0.0
  0
LINE
  8
0
 62
     5
 10
106.192
 20
4.21541
 30
0.0
 11
106.021
 21
3.88056
 31
0.0
  0
LINE
  8
0
 62
     5
 10
106.021
 20
3.88056
 30
0.0
 11
105.963
 21
3.50848
 31
0.0
  0
LINE
  8
0
 62
     5
 10
105.963
 20
3.50848
 30
0.0
 11
106.021
 21
3.13917
 31
0.0
  0
LINE
  8
0
 62
     5
 10
106.021
 20
3.13917
 30
0.0
 11
106.192
 21
2.80431
 31
0.0
  0
LINE
  8
0
 62
     5
 10
106.192
 20
2.80431
 30
0.0
 11
106.456
 21
2.53972
 31
0.0
  0
LINE
  8
0
 62
     5
 10
106.456
 20
2.53972
 30
0.0
 11
106.791
 21
2.36885
 31
0.0
  0
LINE
  8
0
 62
     5
 10
106.791
 20
2.36885
 30
0.0
 11
107.163
 21
2.30959
 31
0.0
  0
LINE
  8
0
 62
     5
 10
107.163
 20
2.30959
 30
0.0
 11
107.532
 21
2.36885
 31
0.0
  0
LINE
  8
0
 62
     5
 10
107.532
 20
2.36885
 30
0.0
 11
107.867
 21
2.53972
 31
0.0
  0
LINE
  8
0
 62
     5
 10
107.867
 20
2.53972
 30
0.0
 11
108.132
 21
2.80431
 31
0.0
  0
LINE
  8
0
 62
     5
 10
108.132
 20
2.80431
 30
0.0
 11
108.304
 21
3.13917
 31
0.0
  0
LINE
  8
0
 62
     5
 10
108.304
 20
3.13917
 30
0.0
 11
108.362
 21
3.50848
 31
0.0
  0
LINE
  8
0
 62
     5
 10
108.362
 20
3.50848
 30
0.0
 11
108.304
 21
3.88056
 31
0.0
  0
LINE
  8
0
 62
     5
 10
108.304
 20
3.88056
 30
0.0
 11
108.132
 21
4.21541
 31
0.0
  0
LINE
  8
0
 62
     5
 10
108.132
 20
4.21541
 30
0.0
 11
107.867
 21
4.48
 31
0.0
  0
LINE
  8
0
 62
     5
 10
107.867
 20
4.48
 30
0.0
 11
107.532
 21
4.65088
 31
0.0
  0
LINE
  8
0
 62
     5
 10
107.532
 20
4.65088
 30
0.0
 11
107.163
 21
4.70877
 31
0.0
  0
LINE
  8
0
 62
     5
 10
107.163
 20
4.70877
 30
0.0
 11
106.791
 21
4.65088
 31
0.0
  0
LINE
  8
0
 62
     5
 10
210.559
 20
4.65088
 30
0.0
 11
210.224
 21
4.48
 31
0.0
  0
LINE
  8
0
 62
     5
 10
210.224
 20
4.48
 30
0.0
 11
209.958
 21
4.21541
 31
0.0
  0
LINE
  8
0
 62
     5
 10
209.958
 20
4.21541
 30
0.0
 11
209.787
 21
3.88056
 31
0.0
  0
LINE
  8
0
 62
     5
 10
209.787
 20
3.88056
 30
0.0
 11
209.729
 21
3.50848
 31
0.0
  0
LINE
  8
0
 62
     5
 10
209.729
 20
3.50848
 30
0.0
 11
209.787
 21
3.13917
 31
0.0
  0
LINE
  8
0
 62
     5
 10
209.787
 20
3.13917
 30
0.0
 11
209.958
 21
2.80431
 31
0.0
  0
LINE
  8
0
 62
     5
 10
209.958
 20
2.80431
 30
0.0
 11
210.224
 21
2.53972
 31
0.0
  0
LINE
  8
0
 62
     5
 10
210.224
 20
2.53972
 30
0.0
 11
210.559
 21
2.36885
 31
0.0
  0
LINE
  8
0
 62
     5
 10
210.559
 20
2.36885
 30
0.0
 11
210.929
 21
2.30959
 31
0.0
  0
LINE
  8
0
 62
     5
 10
210.929
 20
2.30959
 30
0.0
 11
211.3
 21
2.36885
 31
0.0
  0
LINE
  8
0
 62
     5
 10
211.3
 20
2.36885
 30
0.0
 11
211.635
 21
2.53972
 31
0.0
  0
LINE
  8
0
 62
     5
 10
211.635
 20
2.53972
 30
0.0
 11
211.899
 21
2.80431
 31
0.0
  0
LINE
  8
0
 62
     5
 10
211.899
 20
2.80431
 30
0.0
 11
212.071
 21
3.13917
 31
0.0
  0
LINE
  8
0
 62
     5
 10
212.071
 20
3.13917
 30
0.0
 11
212.13
 21
3.50848
 31
0.0
  0
LINE
  8
0
 62
     5
 10
212.13
 20
3.50848
 30
0.0
 11
212.071
 21
3.88056
 31
0.0
  0
LINE
  8
0
 62
     5
 10
212.071
 20
3.88056
 30
0.0
 11
211.899
 21
4.21541
 31
0.0
  0
LINE
  8
0
 62
     5
 10
211.899
 20
4.21541
 30
0.0
 11
211.635
 21
4.48
 31
0.0
  0
LINE
  8
0
 62
     5
 10
211.635
 20
4.48
 30
0.0
 11
211.3
 21
4.65088
 31
0.0
  0
LINE
  8
0
 62
     5
 10
211.3
 20
4.65088
 30
0.0
 11
210.929
 21
4.70877
 31
0.0
  0
LINE
  8
0
 62
     5
 10
210.929
 20
4.70877
 30
0.0
 11
210.559
 21
4.65088
 31
0.0
  0
LINE
  8
0
 62
     5
 10
314.325
 20
4.65088
 30
0.0
 11
313.99
 21
4.48
 31
0.0
  0
LINE
  8
0
 62
     5
 10
313.99
 20
4.48
 30
0.0
 11
313.726
 21
4.21541
 31
0.0
  0
LINE
  8
0
 62
     5
 10
313.726
 20
4.21541
 30
0.0
 11
313.555
 21
3.88056
 31
0.0
  0
LINE
  8
0
 62
     5
 10
313.555
 20
3.88056
 30
0.0
 11
313.497
 21
3.50848
 31
0.0
  0
LINE
  8
0
 62
     5
 10
313.497
 20
3.50848
 30
0.0
 11
313.555
 21
3.13917
 31
0.0
  0
LINE
  8
0
 62
     5
 10
313.555
 20
3.13917
 30
0.0
 11
313.726
 21
2.80431
 31
0.0
  0
LINE
  8
0
 62
     5
 10
313.726
 20
2.80431
 30
0.0
 11
313.99
 21
2.53972
 31
0.0
  0
LINE
  8
0
 62
     5
 10
313.99
 20
2.53972
 30
0.0
 11
314.325
 21
2.36885
 31
0.0
  0
LINE
  8
0
 62
     5
 10
314.325
 20
2.36885
 30
0.0
 11
314.697
 21
2.30959
 31
0.0
  0
LINE
  8
0
 62
     5
 10
314.697
 20
2.30959
 30
0.0
 11
315.067
 21
2.36885
 31
0.0
  0
LINE
  8
0
 62
     5
 10
315.067
 20
2.36885
 30
0.0
 11
315.401
 21
2.53972
 31
0.0
  0
LINE
  8
0
 62
     5
 10
315.401
 20
2.53972
 30
0.0
 11
315.666
 21
2.80431
 31
0.0
  0
LINE
  8
0
 62
     5
 10
315.666
 20
2.80431
 30
0.0
 11
315.838
 21
3.13917
 31
0.0
  0
LINE
  8
0
 62
     5
 10
315.838
 20
3.13917
 30
0.0
 11
315.896
 21
3.50848
 31
0.0
  0
LINE
  8
0
 62
     5
 10
315.896
 20
3.50848
 30
0.0
 11
315.838
 21
3.88056
 31
0.0
  0
LINE
  8
0
 62
     5
 10
315.838
 20
3.88056
 30
0.0
 11
315.666
 21
4.21541
 31
0.0
  0
LINE
  8
0
 62
     5
 10
315.666
 20
4.21541
 30
0.0
 11
315.401
 21
4.48
 31
0.0
  0
LINE
  8
0
 62
     5
 10
315.401
 20
4.48
 30
0.0
 11
315.067
 21
4.65088
 31
0.0
  0
LINE
  8
0
 62
     5
 10
315.067
 20
4.65088
 30
0.0
 11
314.697
 21
4.70877
 31
0.0
  0
LINE
  8
0
 62
     5
 10
314.697
 20
4.70877
 30
0.0
 11
314.325
 21
4.65088
 31
0.0
  0
LINE
  8
0
 62
     5
 10
3.02479
 20
125.452
 30
0.0
 11
2.68993
 21
125.282
 31
0.0
  0
LINE
  8
0
 62
     5
 10
2.68993
 20
125.282
 30
0.0
 11
2.42397
 21
125.016
 31
0.0
  0
LINE
  8
0
 62
     5
 10
2.42397
 20
125.016
 30
0.0
 11
2.25309
 21
124.681
 31
0.0
  0
LINE
  8
0
 62
     5
 10
2.25309
 20
124.681
 30
0.0
 11
2.19384
 21
124.31
 31
0.0
  0
LINE
  8
0
 62
     5
 10
2.19384
 20
124.31
 30
0.0
 11
2.25309
 21
123.941
 31
0.0
  0
LINE
  8
0
 62
     5
 10
2.25309
 20
123.941
 30
0.0
 11
2.42397
 21
123.605
 31
0.0
  0
LINE
  8
0
 62
     5
 10
2.42397
 20
123.605
 30
0.0
 11
2.68993
 21
123.34
 31
0.0
  0
LINE
  8
0
 62
     5
 10
2.68993
 20
123.34
 30
0.0
 11
3.02479
 21
123.169
 31
0.0
  0
LINE
  8
0
 62
     5
 10
3.02479
 20
123.169
 30
0.0
 11
3.39411
 21
123.11
 31
0.0
  0
LINE
  8
0
 62
     5
 10
3.39411
 20
123.11
 30
0.0
 11
3.76481
 21
123.169
 31
0.0
  0
LINE
  8
0
 62
     5
 10
3.76481
 20
123.169
 30
0.0
 11
4.10104
 21
123.34
 31
0.0
  0
LINE
  8
0
 62
     5
 10
4.10104
 20
123.34
 30
0.0
 11
4.36563
 21
123.605
 31
0.0
  0
LINE
  8
0
 62
     5
 10
4.36563
 20
123.605
 30
0.0
 11
4.53651
 21
123.941
 31
0.0
  0
LINE
  8
0
 62
     5
 10
4.53651
 20
123.941
 30
0.0
 11
4.59437
 21
124.31
 31
0.0
  0
LINE
  8
0
 62
     5
 10
4.59437
 20
124.31
 30
0.0
 11
4.53651
 21
124.681
 31
0.0
  0
LINE
  8
0
 62
     5
 10
4.53651
 20
124.681
 30
0.0
 11
4.36563
 21
125.016
 31
0.0
  0
LINE
  8
0
 62
     5
 10
4.36563
 20
125.016
 30
0.0
 11
4.10104
 21
125.282
 31
0.0
  0
LINE
  8
0
 62
     5
 10
4.10104
 20
125.282
 30
0.0
 11
3.76481
 21
125.452
 31
0.0
  0
LINE
  8
0
 62
     5
 10
3.76481
 20
125.452
 30
0.0
 11
3.39411
 21
125.51
 31
0.0
  0
LINE
  8
0
 62
     5
 10
3.39411
 20
125.51
 30
0.0
 11
3.02479
 21
125.452
 31
0.0
  0
LINE
  8
0
 62
     5
 10
314.325
 20
125.452
 30
0.0
 11
313.99
 21
125.282
 31
0.0
  0
LINE
  8
0
 62
     5
 10
313.99
 20
125.282
 30
0.0
 11
313.726
 21
125.016
 31
0.0
  0
LINE
  8
0
 62
     5
 10
313.726
 20
125.016
 30
0.0
 11
313.555
 21
124.681
 31
0.0
  0
LINE
  8
0
 62
     5
 10
313.555
 20
124.681
 30
0.0
 11
313.497
 21
124.31
 31
0.0
  0
LINE
  8
0
 62
     5
 10
313.497
 20
124.31
 30
0.0
 11
313.555
 21
123.941
 31
0.0
  0
LINE
  8
0
 62
     5
 10
313.555
 20
123.941
 30
0.0
 11
313.726
 21
123.605
 31
0.0
  0
LINE
  8
0
 62
     5
 10
313.726
 20
123.605
 30
0.0
 11
313.99
 21
123.34
 31
0.0
  0
LINE
  8
0
 62
     5
 10
313.99
 20
123.34
 30
0.0
 11
314.325
 21
123.169
 31
0.0
  0
LINE
  8
0
 62
     5
 10
314.325
 20
123.169
 30
0.0
 11
314.697
 21
123.11
 31
0.0
  0
LINE
  8
0
 62
     5
 10
314.697
 20
123.11
 30
0.0
 11
315.067
 21
123.169
 31
0.0
  0
LINE
  8
0
 62
     5
 10
315.067
 20
123.169
 30
0.0
 11
315.401
 21
123.34
 31
0.0
  0
LINE
  8
0
 62
     5
 10
315.401
 20
123.34
 30
0.0
 11
315.666
 21
123.605
 31
0.0
  0
LINE
  8
0
 62
     5
 10
315.666
 20
123.605
 30
0.0
 11
315.838
 21
123.941
 31
0.0
  0
LINE
  8
0
 62
     5
 10
315.838
 20
123.941
 30
0.0
 11
315.896
 21
124.31
 31
0.0
  0
LINE
  8
0
 62
     5
 10
315.896
 20
124.31
 30
0.0
 11
315.838
 21
124.681
 31
0.0
  0
LINE
  8
0
 62
     5
 10
315.838
 20
124.681
 30
0.0
 11
315.666
 21
125.016
 31
0.0
  0
LINE
  8
0
 62
     5
 10
315.666
 20
125.016
 30
0.0
 11
315.401
 21
125.282
 31
0.0
  0
LINE
  8
0
 62
     5
 10
315.401
 20
125.282
 30
0.0
 11
315.067
 21
125.452
 31
0.0
  0
LINE
  8
0
 62
     5
 10
315.067
 20
125.452
 30
0.0
 11
314.697
 21
125.51
 31
0.0
  0
LINE
  8
0
 62
     5
 10
314.697
 20
125.51
 30
0.0
 11
314.325
 21
125.452
 31
0.0
  0
LINE
  8
0
 62
     5
 10
210.559
 20
125.452
 30
0.0
 11
210.224
 21
125.282
 31
0.0
  0
LINE
  8
0
 62
     5
 10
210.224
 20
125.282
 30
0.0
 11
209.958
 21
125.016
 31
0.0
  0
LINE
  8
0
 62
     5
 10
209.958
 20
125.016
 30
0.0
 11
209.787
 21
124.681
 31
0.0
  0
LINE
  8
0
 62
     5
 10
209.787
 20
124.681
 30
0.0
 11
209.729
 21
124.31
 31
0.0
  0
LINE
  8
0
 62
     5
 10
209.729
 20
124.31
 30
0.0
 11
209.787
 21
123.941
 31
0.0
  0
LINE
  8
0
 62
     5
 10
209.787
 20
123.941
 30
0.0
 11
209.958
 21
123.605
 31
0.0
  0
LINE
  8
0
 62
     5
 10
209.958
 20
123.605
 30
0.0
 11
210.224
 21
123.34
 31
0.0
  0
LINE
  8
0
 62
     5
 10
210.224
 20
123.34
 30
0.0
 11
210.559
 21
123.169
 31
0.0
  0
LINE
  8
0
 62
     5
 10
210.559
 20
123.169
 30
0.0
 11
210.929
 21
123.11
 31
0.0
  0
LINE
  8
0
 62
     5
 10
210.929
 20
123.11
 30
0.0
 11
211.3
 21
123.169
 31
0.0
  0
LINE
  8
0
 62
     5
 10
211.3
 20
123.169
 30
0.0
 11
211.635
 21
123.34
 31
0.0
  0
LINE
  8
0
 62
     5
 10
211.635
 20
123.34
 30
0.0
 11
211.899
 21
123.605
 31
0.0
  0
LINE
  8
0
 62
     5
 10
211.899
 20
123.605
 30
0.0
 11
212.071
 21
123.941
 31
0.0
  0
LINE
  8
0
 62
     5
 10
212.071
 20
123.941
 30
0.0
 11
212.13
 21
124.31
 31
0.0
  0
LINE
  8
0
 62
     5
 10
212.13
 20
124.31
 30
0.0
 11
212.071
 21
124.681
 31
0.0
  0
LINE
  8
0
 62
     5
 10
212.071
 20
124.681
 30
0.0
 11
211.899
 21
125.016
 31
0.0
  0
LINE
  8
0
 62
     5
 10
211.899
 20
125.016
 30
0.0
 11
211.635
 21
125.282
 31
0.0
  0
LINE
  8
0
 62
     5
 10
211.635
 20
125.282
 30
0.0
 11
211.3
 21
125.452
 31
0.0
  0
LINE
  8
0
 62
     5
 10
211.3
 20
125.452
 30
0.0
 11
210.929
 21
125.51
 31
0.0
  0
LINE
  8
0
 62
     5
 10
210.929
 20
125.51
 30
0.0
 11
210.559
 21
125.452
 31
0.0
  0
LINE
  8
0
 62
     5
 10
106.791
 20
125.452
 30
0.0
 11
106.456
 21
125.282
 31
0.0
  0
LINE
  8
0
 62
     5
 10
106.456
 20
125.282
 30
0.0
 11
106.192
 21
125.016
 31
0.0
  0
LINE
  8
0
 62
     5
 10
106.192
 20
125.016
 30
0.0
 11
106.021
 21
124.681
 31
0.0
  0
LINE
  8
0
 62
     5
 10
106.021
 20
124.681
 30
0.0
 11
105.963
 21
124.31
 31
0.0
  0
LINE
  8
0
 62
     5
 10
105.963
 20
124.31
 30
0.0
 11
106.021
 21
123.941
 31
0.0
  0
LINE
  8
0
 62
     5
 10
106.021
 20
123.941
 30
0.0
 11
106.192
 21
123.605
 31
0.0
  0
LINE
  8
0
 62
     5
 10
106.192
 20
123.605
 30
0.0
 11
106.456
 21
123.34
 31
0.0
  0
LINE
  8
0
 62
     5
 10
106.456
 20
123.34
 30
0.0
 11
106.791
 21
123.169
 31
0.0
  0
LINE
  8
0
 62
     5
 10
106.791
 20
123.169
 30
0.0
 11
107.163
 21
123.11
 31
0.0
  0
LINE
  8
0
 62
     5
 10
107.163
 20
123.11
 30
0.0
 11
107.532
 21
123.169
 31
0.0
  0
LINE
  8
0
 62
     5
 10
107.532
 20
123.169
 30
0.0
 11
107.867
 21
123.34
 31
0.0
  0
LINE
  8
0
 62
     5
 10
107.867
 20
123.34
 30
0.0
 11
108.132
 21
123.605
 31
0.0
  0
LINE
  8
0
 62
     5
 10
108.132
 20
123.605
 30
0.0
 11
108.304
 21
123.941
 31
0.0
  0
LINE
  8
0
 62
     5
 10
108.304
 20
123.941
 30
0.0
 11
108.362
 21
124.31
 31
0.0
  0
LINE
  8
0
 62
     5
 10
108.362
 20
124.31
 30
0.0
 11
108.304
 21
124.681
 31
0.0
  0
LINE
  8
0
 62
     5
 10
108.304
 20
124.681
 30
0.0
 11
108.132
 21
125.016
 31
0.0
  0
LINE
  8
0
 62
     5
 10
108.132
 20
125.016
 30
0.0
 11
107.867
 21
125.282
 31
0.0
  0
LINE
  8
0
 62
     5
 10
107.867
 20
125.282
 30
0.0
 11
107.532
 21
125.452
 31
0.0
  0
LINE
  8
0
 62
     5
 10
107.532
 20
125.452
 30
0.0
 11
107.163
 21
125.51
 31
0.0
  0
LINE
  8
0
 62
     5
 10
107.163
 20
125.51
 30
0.0
 11
106.791
 21
125.452
 31
0.0
  0
ENDSEC
  0
EOF
